<svg xmlns="http://www.w3.org/2000/svg" width="43.477" height="43.476" viewBox="0 0 43.477 43.476">
  <g id="back_to_top" data-name="back to top" transform="translate(-138.211 -2092.175)">
    <g id="Icon-backtotop-04" transform="matrix(0.999, 0.035, -0.035, 0.999, 139.678, 2092.175)">
      <g id="Gruppe_13" data-name="Gruppe 13">
        <path id="Pfad_68" data-name="Pfad 68" d="M21.017,0A21.017,21.017,0,1,0,42.035,21.017,21.025,21.025,0,0,0,21.017,0Z" fill="rgba(255,255,255,0.7)"/>
      </g>
      <g id="Gruppe_14" data-name="Gruppe 14" transform="matrix(0.999, -0.035, 0.035, 0.999, 12.837, 14.918)">
        <g id="Livello_29_2_">
          <path id="Pfad_69" data-name="Pfad 69" d="M13.617,25.249a.908.908,0,0,1-1.439,0,1.362,1.362,0,0,1,0-1.711h0l6.736-8.084h0a.919.919,0,0,1,.748-.354.987.987,0,0,1,.806.472h0L27.2,23.656h0a1.362,1.362,0,0,1,0,1.711.908.908,0,0,1-1.439,0h0l-6.1-7.317-6.045,7.2h0" transform="matrix(0.999, -0.035, 0.035, 0.999, -12.575, -14.4)"/>
        </g>
      </g>
    </g>
  </g>
</svg>
