<?xml version="1.0" encoding="utf-8"?>
<!-- Generator: Adobe Illustrator 23.0.1, SVG Export Plug-In . SVG Version: 6.00 Build 0)  -->
<svg version="1.1" id="Ebene_1" xmlns:sketch="http://www.bohemiancoding.com/sketch/ns"
	 xmlns="http://www.w3.org/2000/svg" xmlns:xlink="http://www.w3.org/1999/xlink" x="0px" y="0px" viewBox="0 0 50 50"
	 style="enable-background:new 0 0 50 50;" xml:space="preserve">
<style type="text/css">
	.st0{fill:#FFFFFF;}
	.st1{fill-rule:evenodd;clip-rule:evenodd;}
</style>
<path class="st0" d="M25,0C11.2,0,0,11.2,0,25c0,13.8,11.2,25,25,25s25-11.2,25-25C50,11.2,38.8,0,25,0z"/>
<g>
	<path d="M34.1,16.8c-3-0.3-6.1-0.3-9.1-0.3c-3,0-6.1,0-9.1,0.3c-1.3,0.1-2.3,1.1-2.6,2.4c-0.4,1.8-0.4,3.9-0.4,5.8
		c0,1.9,0,3.9,0.4,5.8c0.3,1.3,1.4,2.3,2.6,2.4c3,0.3,6.1,0.3,9.1,0.3c3,0,6.1,0,9.1-0.3c1.3-0.1,2.3-1.1,2.6-2.4
		c0.4-1.8,0.4-3.9,0.4-5.8c0-1.9,0-3.9-0.4-5.8C36.5,17.9,35.4,17,34.1,16.8z M22.8,28.3v-7.8l6.8,3.9L22.8,28.3z"/>
</g>
</svg>
