<?xml version="1.0" encoding="utf-8"?>
<!-- Generator: Adobe Illustrator 23.0.1, SVG Export Plug-In . SVG Version: 6.00 Build 0)  -->
<svg version="1.1" id="Ebene_1" xmlns:sketch="http://www.bohemiancoding.com/sketch/ns"
	 xmlns="http://www.w3.org/2000/svg" xmlns:xlink="http://www.w3.org/1999/xlink" x="0px" y="0px" viewBox="0 0 50 50"
	 style="enable-background:new 0 0 50 50;" xml:space="preserve">
<style type="text/css">
	.st0{fill:#FFFFFF;}
	.st1{fill-rule:evenodd;clip-rule:evenodd;}
</style>
<path class="st0" d="M25,0C11.2,0,0,11.2,0,25c0,13.8,11.2,25,25,25s25-11.2,25-25C50.1,11.2,38.9,0,25,0z"/>
<path d="M36,16c-0.2-1-1-1.8-2-2c0,0-0.1,0-0.1,0H16.2c-0.1,0-0.2,0-0.3,0.1c-1,0.2-1.7,1.1-1.8,2.1c0,0,0,0.1,0,0.1v18.5
	c0,0.1,0,0.2,0.1,0.4c0.2,1,1,1.8,2,1.9c0,0,0.1,0,0.1,0h17.6c0.1,0,0.2,0,0.3-0.1c0.9-0.2,1.6-1,1.8-1.9c0-0.1,0-0.2,0-0.3V16.3
	C36,16.2,36,16.1,36,16z M30.7,15.9c0.7,0,1.4,0,2.1,0c0.5,0,0.9,0.4,0.9,0.9c0,0.7,0,1.5,0,2.2c0,0.5-0.4,0.9-0.8,0.9
	c-0.4,0-0.7,0-1.1,0c-0.3,0-0.7,0-1,0c-0.4,0-0.7-0.2-0.9-0.6c0-0.1-0.1-0.2-0.1-0.3c0-0.7,0-1.4,0-2.2
	C29.8,16.3,30.2,15.9,30.7,15.9z M25,20.9c2.5,0,4.5,2.2,4.5,4.8c-0.1,2.5-2.1,4.6-4.6,4.6c-2.4-0.1-4.4-2.1-4.4-4.7
	C20.6,22.9,22.6,20.9,25,20.9z M33.6,23.5c0,3.4,0,6.8,0,10.2c0,0.5-0.4,0.9-0.9,0.9c-5.2,0-10.3,0-15.5,0c-0.5,0-0.9-0.4-0.9-0.9
	c0-3.4,0-6.8,0-10.2v-0.1c0.7,0,1.4,0,2.1,0c-0.5,2-0.4,3.8,0.5,5.6c0.6,1.2,1.5,2.1,2.7,2.8c2.3,1.3,5.1,1.2,7.2-0.3
	c0.8-0.6,1.5-1.3,2-2.2c0.5-0.9,0.8-1.8,1-2.9c0.1-1,0-2-0.3-3L33.6,23.5L33.6,23.5z"/>
</svg>
